<svg xmlns="http://www.w3.org/2000/svg" width="600" height="400" viewBox="0 0 600 400">
  <!-- Background -->
  <rect width="600" height="400" fill="#1E2232"/>
  
  <!-- Trading Journal Layout -->
  <rect x="50" y="50" width="500" height="300" fill="#2A2F45" rx="5" ry="5"/>
  
  <!-- Header -->
  <rect x="50" y="50" width="500" height="50" fill="#3F4865" rx="5" ry="5"/>
  <text x="70" y="82" font-family="Arial" font-size="18" fill="#FFFFFF" font-weight="bold">ETH/USDT Trade Plan - October 2025</text>
  
  <!-- Content Sections -->
  <rect x="70" y="120" width="460" height="30" fill="#3F4865" rx="3" ry="3"/>
  <text x="80" y="140" font-family="Arial" font-size="14" fill="#FFFFFF">Entry: $3,850 - Support level test after 20% correction</text>
  
  <rect x="70" y="160" width="460" height="30" fill="#3F4865" rx="3" ry="3"/>
  <text x="80" y="180" font-family="Arial" font-size="14" fill="#FFFFFF">Stop Loss: $3,650 - Below weekly support (-5.2%)</text>
  
  <rect x="70" y="200" width="460" height="30" fill="#3F4865" rx="3" ry="3"/>
  <text x="80" y="220" font-family="Arial" font-size="14" fill="#FFFFFF">Take Profit 1: $4,200 (+9.1%) - Previous resistance</text>
  
  <rect x="70" y="240" width="460" height="30" fill="#3F4865" rx="3" ry="3"/>
  <text x="80" y="260" font-family="Arial" font-size="14" fill="#FFFFFF">Take Profit 2: $4,500 (+16.9%) - ATH retest</text>
  
  <!-- Reasoning -->
  <rect x="70" y="280" width="460" height="50" fill="#3F4865" rx="3" ry="3"/>
  <text x="80" y="300" font-family="Arial" font-size="14" fill="#FFFFFF">Reasoning: ETH oversold on RSI, bullish divergence, volume spike</text>
  <text x="80" y="320" font-family="Arial" font-size="14" fill="#FFFFFF">Risk/Reward Ratio: 1:3.25</text>
</svg>