<svg xmlns="http://www.w3.org/2000/svg" width="600" height="400" viewBox="0 0 600 400">
  <!-- Background -->
  <rect width="600" height="400" fill="#1E2232"/>
  
  <!-- Article Layout -->
  <rect x="50" y="50" width="500" height="300" fill="#2A2F45" rx="5" ry="5"/>
  
  <!-- Header -->
  <rect x="50" y="50" width="500" height="60" fill="#3F4865" rx="5" ry="5"/>
  <text x="70" y="82" font-family="Arial" font-size="18" fill="#FFFFFF" font-weight="bold">Kenapa Bitcoin Cenderung Bullish di Q4?</text>
  <text x="70" y="102" font-family="Arial" font-size="12" fill="#ADB5BD">Oktober 15, 2025 | Market Analysis</text>
  
  <!-- Content Sections - simulating text lines -->
  <rect x="70" y="130" width="460" height="8" fill="#3F4865" rx="2" ry="2"/>
  <rect x="70" y="145" width="420" height="8" fill="#3F4865" rx="2" ry="2"/>
  <rect x="70" y="160" width="460" height="8" fill="#3F4865" rx="2" ry="2"/>
  <rect x="70" y="175" width="440" height="8" fill="#3F4865" rx="2" ry="2"/>
  
  <rect x="70" y="195" width="200" height="8" fill="#3F4865" rx="2" ry="2"/>
  <text x="70" y="215" font-family="Arial" font-size="14" fill="#FFFFFF" font-weight="bold">Faktor Kunci:</text>
  
  <!-- Bullet points -->
  <circle cx="80" cy="235" r="4" fill="#00C853"/>
  <rect x="90" y="230" width="420" height="8" fill="#3F4865" rx="2" ry="2"/>
  
  <circle cx="80" cy="255" r="4" fill="#00C853"/>
  <rect x="90" y="250" width="440" height="8" fill="#3F4865" rx="2" ry="2"/>
  
  <circle cx="80" cy="275" r="4" fill="#00C853"/>
  <rect x="90" y="270" width="380" height="8" fill="#3F4865" rx="2" ry="2"/>
  
  <circle cx="80" cy="295" r="4" fill="#00C853"/>
  <rect x="90" y="290" width="410" height="8" fill="#3F4865" rx="2" ry="2"/>
  
  <!-- Chart mini visualization -->
  <polyline points="350,330 380,320 410,325 440,300 470,280 500,260 530,240" 
           stroke="#00C853" stroke-width="3" fill="none"/>
  <text x="440" y="350" font-family="Arial" font-size="12" fill="#FFFFFF">Q4 Performance</text>
</svg>